<svg width="142" height="142" viewBox="0 0 142 142" fill="none" xmlns="http://www.w3.org/2000/svg">
<path d="M26.2041 141.916C25.8333 141.913 25.4671 141.842 25.1204 141.709L2.74956 132.738C1.62918 132.271 0.916215 131.158 0.963119 129.944C1.0089 128.731 1.80426 127.674 2.95782 127.295L12.1828 124.389V124.388C12.8122 124.198 13.3215 123.731 13.5664 123.12L23.5297 98.2821C23.857 97.3471 23.5503 96.3068 22.7687 95.6992C17.4779 91.8768 13.6181 86.3962 11.7996 80.1285C9.98231 73.8604 10.3119 67.1646 12.7357 61.1048L20.5545 41.5708C21.3842 39.5258 22.9909 37.8914 25.0223 37.0275C27.0536 36.1623 29.3447 36.1383 31.3943 36.9588L71.4549 53.1029L111.559 36.8659C113.609 36.0454 115.9 36.0706 117.931 36.9346C119.963 37.7986 121.57 39.4328 122.399 41.4791L130.218 61.0131C132.642 67.0717 132.971 73.7675 131.154 80.0356C129.336 86.3036 125.475 91.7842 120.185 95.6063C119.403 96.2151 119.097 97.2542 119.424 98.1892L129.387 123.12C129.632 123.731 130.141 124.198 130.771 124.388L139.996 127.294V127.295C141.149 127.674 141.945 128.731 141.991 129.944C142.038 131.157 141.325 132.271 140.204 132.738L117.833 141.709C116.702 142.139 115.421 141.822 114.62 140.914C113.82 140.005 113.666 138.696 114.235 137.627L118.847 129.094V129.093C119.112 128.499 119.112 127.82 118.847 127.225L109.138 102.364C108.781 101.43 107.82 100.873 106.832 101.026C100.367 101.914 93.7901 100.609 88.1552 97.3185C82.519 94.0273 78.1485 88.9426 75.7441 82.8761L71.5008 72.3599L67.2803 82.8761C64.8598 88.9288 60.486 93.9998 54.8519 97.2796C49.219 100.561 42.6504 101.863 36.1913 100.981C35.2071 100.844 34.2572 101.396 33.8853 102.318L23.8992 127.226C23.6794 127.84 23.7298 128.519 24.0376 129.093L28.6496 137.626V137.627C29.1291 138.511 29.1188 139.578 28.621 140.451C28.1231 141.325 27.2099 141.878 26.2051 141.916L26.2041 141.916ZM107.131 97.543C108.243 97.5316 109.334 97.852 110.262 98.4642C111.191 99.0765 111.916 99.952 112.343 100.98L122.237 125.934C122.857 127.513 122.747 129.285 121.937 130.777L118.062 137.88L137.48 130.108L129.732 127.664V127.663C128.112 127.166 126.807 125.962 126.181 124.387L116.217 99.572C115.757 98.4036 115.698 97.115 116.048 95.9087C116.398 94.7025 117.14 93.6474 118.155 92.907C122.826 89.5299 126.235 84.6889 127.84 79.1524C129.445 73.6159 129.153 67.7014 127.01 62.3492L119.192 42.7923H119.193C118.708 41.5941 117.773 40.6328 116.587 40.1178C115.39 39.6223 114.046 39.6223 112.85 40.1178L73.2294 55.9153V67.4463L78.9261 81.6529C81.1303 87.1071 85.121 91.6493 90.2467 94.5368C95.3714 97.4241 101.324 98.484 107.131 97.5432L107.131 97.543ZM5.51758 130.13L24.9358 137.88L20.9922 130.776C20.182 129.285 20.0721 127.513 20.6924 125.933L30.6556 100.98C31.1191 99.8099 31.9626 98.8315 33.0498 98.1998C34.1381 97.568 35.4061 97.3197 36.6512 97.4971C42.3539 98.2787 48.1538 97.1274 53.1249 94.2264C58.0951 91.3253 61.9494 86.8415 64.0734 81.4913L69.7702 67.2847V55.7537L30.1461 40.0708C28.9502 39.5764 27.6067 39.5764 26.4108 40.0708C25.2252 40.5869 24.2891 41.5483 23.8038 42.7464L16.0094 62.349C13.8568 67.698 13.5569 73.6122 15.158 79.1513C16.759 84.689 20.1683 89.5324 24.8421 92.9071C25.8571 93.6475 26.5987 94.7027 26.9489 95.9088C27.3002 97.1151 27.2407 98.4036 26.7796 99.5721L16.8163 124.411C16.1914 125.985 14.8845 127.19 13.2652 127.686L5.51758 130.13ZM40.3193 94.0596C25.8827 94.0596 14.4203 80.0841 18.8708 65.9689C19.094 65.241 19.7692 64.7444 20.5313 64.7466H64.005C64.5795 64.7443 65.1162 65.0305 65.4355 65.5077C65.7571 65.9838 65.8257 66.5869 65.6197 67.1224L60.2227 80.6139C58.6228 84.584 55.8738 87.9839 52.3275 90.3803C48.7811 92.7756 44.5992 94.0574 40.3204 94.0598L40.3193 94.0596ZM21.869 68.2063C17.2571 89.7934 48.2752 99.8469 57.0165 79.3218L61.467 68.2063H21.869ZM102.682 94.0596C98.4016 94.0573 94.2197 92.7756 90.6733 90.3802C87.1278 87.9838 84.378 84.5838 82.7781 80.6138L77.3811 67.1223C77.1751 66.5867 77.2437 65.9836 77.5665 65.5075C77.8846 65.0303 78.4213 64.7442 78.9958 64.7465H122.469C123.233 64.7442 123.907 65.2409 124.13 65.9687C128.582 80.084 117.142 94.0595 102.683 94.0595L102.682 94.0596ZM81.5559 68.2063L86.0064 79.3218C94.7474 99.8478 125.651 89.7691 121.154 68.2063H81.5559ZM71.5012 41.6847C71.0411 41.687 70.6005 41.5039 70.2789 41.1777L54.1349 25.0337C49.0607 19.9366 46.963 14.0095 48.3693 8.75105C51.3206 -1.71907 63.7753 -2.29592 71.5012 5.13025C79.2271 -2.29592 91.6806 -1.71907 94.7248 8.72819C96.1313 13.9867 94.0325 19.9137 88.9592 25.0108L72.8152 41.1549V41.1537C72.4764 41.5154 71.9956 41.7099 71.5012 41.6847ZM59.7391 3.54016C49.3375 4.11696 49.1304 15.902 56.5106 22.567L71.5012 37.5576L86.5146 22.567C99.499 9.8595 85.4309 -4.23172 72.6777 8.7301L72.6766 8.72895C71.9922 9.37899 70.9176 9.37899 70.2321 8.72895C67.5519 5.68823 63.782 3.82404 59.7391 3.54016Z" fill="black"/>
</svg>
